<svg width="243" height="243" viewBox="0 0 243 243" fill="none" xmlns="http://www.w3.org/2000/svg">
<path id="Vector" d="M121.501 0.455078C54.7548 0.455078 0.455288 54.7559 0.455288 121.5C0.455288 184.676 49.1209 236.678 110.924 242.055C112.128 242.174 113.39 242.272 114.703 242.34C115.08 242.363 115.456 242.383 115.839 242.4C116.986 242.448 118.179 242.477 119.412 242.491C120.108 242.503 120.799 242.545 121.501 242.545C124.407 242.545 127.278 242.403 130.133 242.203C137.878 241.724 144.7 240.396 146.286 239.983C201.183 228.515 242.545 179.749 242.545 121.499C242.545 54.7559 188.242 0.455078 121.501 0.455078ZM67.4215 187.427L57.9858 193.021L52.8084 196.092L51.3813 194.728L54.184 189.464L59.3214 179.818L98.0462 107.086L108.47 117.044L102.15 123.666C98.4112 127.577 97.4185 132.799 99.4848 137.646C101.688 142.788 106.774 146.242 112.151 146.242C115.61 146.242 118.915 144.769 121.461 142.104L127.78 135.487L138.209 145.437L67.4215 187.427ZM109.68 130.853L119.589 120.469C119.618 120.44 119.635 120.406 119.664 120.378C119.686 120.355 119.715 120.338 119.732 120.315L131.48 108.02C132.353 107.101 133.038 107.101 133.261 107.101C134.431 107.101 135.818 108.128 136.36 109.384C136.782 110.377 136.6 111.182 135.738 112.084L123.996 124.385C123.967 124.411 123.95 124.442 123.928 124.471C123.899 124.5 123.871 124.511 123.848 124.539L113.938 134.917C113.059 135.836 112.38 135.836 112.151 135.836C110.981 135.836 109.594 134.808 109.057 133.553C108.629 132.56 108.817 131.754 109.68 130.853ZM135.116 127.81L143.267 119.271C147 115.355 147.999 110.132 145.927 105.291C143.729 100.148 138.638 96.6945 133.261 96.6945C129.806 96.6945 126.502 98.1616 123.95 100.83L115.799 109.367L105.376 99.4117L177.864 56.4098L187.243 50.8471L190.776 48.7523L192.204 50.1194L190.257 53.7701L185.108 63.4396L145.539 137.76L135.116 127.81ZM146.72 13.6153C164.359 17.738 180.376 26.0965 193.67 37.5332C192.153 36.8426 190.354 36.9022 188.858 37.7899L178.749 43.7892L176.792 44.9479C166.306 37.3563 154.198 31.9076 141.109 29.1277L146.72 13.6153ZM121.513 10.8295C127.187 10.8295 132.592 11.3393 136.491 11.8299L130.817 27.5076L127.221 37.4444L121.809 52.406L115.97 37.4332L112.089 27.4718L106.249 12.4954C110.37 11.3992 115.548 10.8295 121.513 10.8295ZM117.226 68.8026C117.991 70.7679 119.88 72.0591 121.987 72.0591C122.009 72.0591 122.033 72.0591 122.049 72.0591C124.184 72.0336 126.074 70.6877 126.799 68.6843L137.599 38.8347C148.285 40.9149 158.256 44.988 167.1 50.6991L94.1702 93.9547C93.7194 94.223 93.3487 94.5655 93.0056 94.9365C92.8002 95.1419 92.6233 95.3645 92.452 95.6043C92.3265 95.7812 92.1897 95.9468 92.0867 96.1409L52.7169 170.074C45.867 160.399 41.0381 149.216 38.7491 137.137H52.3463C55.1718 137.137 57.4608 134.848 57.4608 132.023V111.565C57.4608 108.742 55.1715 106.45 52.3463 106.45H38.5779C44.754 72.3419 71.5372 45.3245 105.519 38.7718L117.226 68.8026ZM40.895 126.908V116.679H47.2311V126.908H40.895ZM10.6843 121.5C10.6843 69.2593 47.0317 25.377 95.7569 13.7349L101.745 29.0946C59.0932 38.2047 27.0013 76.1689 27.0013 121.499C27.0013 143.599 34.6506 163.932 47.4083 180.041L46.7806 181.222L40.3418 193.324C39.8512 194.237 39.7084 195.247 39.7939 196.229C21.7358 176.519 10.6843 150.284 10.6843 121.5ZM95.9229 229.303C79.637 225.438 64.7387 217.954 52.1064 207.782C53.0081 207.777 53.9101 207.543 54.7266 207.058L66.7364 199.933L67.9011 199.243C77.9993 206.224 89.5238 211.258 101.928 213.89L95.9229 229.303ZM130.623 231.911C127.535 232.123 124.144 232.282 120.685 232.282C120.388 232.282 120.12 232.276 119.829 232.271C118.522 232.254 117.209 232.237 115.913 232.174C115.799 232.168 115.696 232.16 115.588 232.154C114.326 232.088 113.076 231.974 111.826 231.866C109.549 231.628 107.71 231.312 106.255 230.964L112.283 215.5L116.147 205.579L121.809 191.054L127.061 205.564L130.669 215.546L136.366 231.289C134.465 231.546 132.552 231.752 130.623 231.911ZM126.799 174.778C126.074 172.774 124.184 171.427 122.049 171.404C119.972 171.344 117.997 172.671 117.226 174.658L105.695 204.232C95.6198 202.306 86.1669 198.609 77.6962 193.432L149.421 150.888C149.866 150.625 150.242 150.283 150.579 149.912C150.939 149.553 151.264 149.164 151.504 148.708L191.17 74.2049C197.661 83.7419 202.227 94.6761 204.368 106.449H191.559C188.733 106.449 186.445 108.741 186.445 111.564V132.023C186.445 134.848 188.733 137.137 191.559 137.137H204.305C197.923 170.975 171.255 197.727 137.455 204.231L126.799 174.778ZM203.009 116.679V126.908H196.673V116.679H203.009ZM146.566 229.423L140.978 213.971C183.772 204.969 216.001 166.929 216.001 121.5C216.001 99.9427 208.712 80.0766 196.519 64.1594L197.592 62.1444L203.244 51.5239C204.02 50.0641 204.009 48.373 203.352 46.9318C221.322 66.6279 232.316 92.796 232.316 121.5C232.315 173.978 195.634 218.024 146.566 229.423Z" fill="#0331D1"/>
</svg>
