<svg width="14" height="14" viewBox="0 0 14 14" fill="none" xmlns="http://www.w3.org/2000/svg">
<g id="Rating">
<path id="Vector" d="M12.914 10.8016L7.40461 3.20625C7.20461 2.93125 6.79524 2.93125 6.5968 3.20625L1.08586 10.8016C1.0723 10.8202 1.06417 10.8423 1.06239 10.8653C1.0606 10.8883 1.06522 10.9114 1.07574 10.932C1.08626 10.9525 1.10226 10.9697 1.12197 10.9817C1.14168 10.9938 1.16434 11.0001 1.18742 11H2.3593C2.43898 11 2.51398 10.9609 2.56086 10.8969L6.99992 4.77812L11.439 10.8969C11.4859 10.9609 11.5609 11 11.6405 11H12.8124C12.914 11 12.9734 10.8844 12.914 10.8016Z" fill="#BFBFBF"/>
</g>
</svg>
