<svg width="37" height="36" viewBox="0 0 37 36" fill="none" xmlns="http://www.w3.org/2000/svg">
<g id="Camera">
<path id="Vector" d="M32.6426 7.40039H27.1783L25.8765 3.75218C25.7866 3.50254 25.6218 3.28676 25.4046 3.1343C25.1874 2.98185 24.9285 2.90016 24.6631 2.90039H12.3363C11.7939 2.90039 11.3078 3.24191 11.127 3.75218L9.82115 7.40039H4.35686C2.58097 7.40039 1.14258 8.83879 1.14258 10.6147V28.9361C1.14258 30.712 2.58097 32.1504 4.35686 32.1504H32.6426C34.4185 32.1504 35.8569 30.712 35.8569 28.9361V10.6147C35.8569 8.83879 34.4185 7.40039 32.6426 7.40039ZM32.964 28.9361C32.964 29.1129 32.8194 29.2575 32.6426 29.2575H4.35686C4.18008 29.2575 4.03544 29.1129 4.03544 28.9361V10.6147C4.03544 10.4379 4.18008 10.2932 4.35686 10.2932H11.8582L12.5453 8.37271L13.4653 5.79325H23.5301L24.4502 8.37271L25.1372 10.2932H32.6426C32.8194 10.2932 32.964 10.4379 32.964 10.6147V28.9361ZM18.4997 12.8647C14.9479 12.8647 12.0711 15.7415 12.0711 19.2933C12.0711 22.845 14.9479 25.7218 18.4997 25.7218C22.0515 25.7218 24.9283 22.845 24.9283 19.2933C24.9283 15.7415 22.0515 12.8647 18.4997 12.8647ZM18.4997 23.1504C16.3703 23.1504 14.6426 21.4227 14.6426 19.2933C14.6426 17.1638 16.3703 15.4361 18.4997 15.4361C20.6292 15.4361 22.3569 17.1638 22.3569 19.2933C22.3569 21.4227 20.6292 23.1504 18.4997 23.1504Z" fill="#8C8C8C"/>
</g>
</svg>
