<svg width="24" height="25" viewBox="0 0 24 25" fill="none" xmlns="http://www.w3.org/2000/svg">
<path d="M5.18784 18.8304C5.24141 18.8304 5.29498 18.825 5.34855 18.817L9.85391 18.0268C9.90748 18.0161 9.95837 17.992 9.99587 17.9518L21.3503 6.59732C21.3752 6.57254 21.3949 6.54311 21.4083 6.5107C21.4218 6.4783 21.4287 6.44356 21.4287 6.40848C21.4287 6.3734 21.4218 6.33867 21.4083 6.30626C21.3949 6.27386 21.3752 6.24442 21.3503 6.21964L16.8986 1.76518C16.8477 1.71429 16.7807 1.6875 16.7084 1.6875C16.6361 1.6875 16.5691 1.71429 16.5182 1.76518L5.16373 13.1196C5.12355 13.1598 5.09944 13.208 5.08873 13.2616L4.29855 17.767C4.27249 17.9105 4.2818 18.0581 4.32568 18.1972C4.36955 18.3363 4.44666 18.4626 4.55033 18.5652C4.72712 18.7366 4.94944 18.8304 5.18784 18.8304ZM6.99319 14.1589L16.7084 4.44643L18.6718 6.40982L8.95659 16.1223L6.57534 16.5429L6.99319 14.1589ZM21.8566 21.0804H2.1423C1.66819 21.0804 1.28516 21.4634 1.28516 21.9375V22.9018C1.28516 23.0196 1.38158 23.1161 1.49944 23.1161H22.4994C22.6173 23.1161 22.7137 23.0196 22.7137 22.9018V21.9375C22.7137 21.4634 22.3307 21.0804 21.8566 21.0804Z" fill="black" fill-opacity="0.85"/>
</svg>
