<svg xmlns="http://www.w3.org/2000/svg" width="20" height="20" viewBox="0 0 20 20" fill="none">
  <path d="M19.1744 4.89762C18.8752 4.20484 18.4438 3.57706 17.9043 3.0494C17.3644 2.52017 16.7279 2.0996 16.0293 1.81056C15.3049 1.50965 14.528 1.35563 13.7436 1.35744C12.6431 1.35744 11.5695 1.65878 10.6364 2.22797C10.4132 2.36413 10.2012 2.51369 10.0003 2.67663C9.79939 2.51369 9.58733 2.36413 9.36412 2.22797C8.43108 1.65878 7.35742 1.35744 6.25698 1.35744C5.46456 1.35744 4.69671 1.50922 3.97126 1.81056C3.27037 2.10074 2.63867 2.51815 2.09626 3.0494C1.55608 3.57646 1.12456 4.20439 0.826172 4.89762C0.515904 5.6186 0.357422 6.38422 0.357422 7.17217C0.357422 7.91547 0.509208 8.69003 0.810547 9.47797C1.06278 10.1365 1.42439 10.8195 1.88644 11.5092C2.61858 12.6007 3.62528 13.7391 4.87528 14.8932C6.94671 16.8061 8.99805 18.1275 9.0851 18.1811L9.61412 18.5204C9.84849 18.6699 10.1498 18.6699 10.3842 18.5204L10.9132 18.1811C11.0003 18.1253 13.0494 16.8061 15.123 14.8932C16.373 13.7391 17.3797 12.6007 18.1119 11.5092C18.5739 10.8195 18.9378 10.1365 19.1878 9.47797C19.4891 8.69003 19.6409 7.91547 19.6409 7.17217C19.6431 6.38422 19.4847 5.6186 19.1744 4.89762ZM10.0003 16.7548C10.0003 16.7548 2.05385 11.6632 2.05385 7.17217C2.05385 4.89762 3.93555 3.05387 6.25698 3.05387C7.88867 3.05387 9.30385 3.96458 10.0003 5.29494C10.6967 3.96458 12.1119 3.05387 13.7436 3.05387C16.065 3.05387 17.9467 4.89762 17.9467 7.17217C17.9467 11.6632 10.0003 16.7548 10.0003 16.7548Z" fill="#A0ABC0"/>
</svg>