<svg width="217" height="217" viewBox="0 0 217 217" fill="none" xmlns="http://www.w3.org/2000/svg">
<g id="1075474_air_appliances_fan_fresh_hot_icon 1">
<g id="Group">
<path id="Vector" d="M100.47 121.337C98.1844 121.337 96.3329 123.188 96.3329 125.474V175.718H79.0355C76.7543 175.718 74.8981 177.569 74.8981 179.855C74.8981 182.141 76.7543 183.992 79.0355 183.992H121.905C124.186 183.992 126.042 182.141 126.042 179.855C126.042 177.569 124.186 175.718 121.905 175.718H104.608V125.474C104.608 123.188 102.756 121.337 100.47 121.337Z" fill="#0331D1"/>
<path id="Vector_2" d="M17.6728 60.0855C18.3099 57.8922 17.0448 55.5974 14.8515 54.96C12.6582 54.3225 10.3634 55.5879 9.72488 57.7858C6.38878 69.2974 6.48562 81.4784 10.0075 92.9992C10.5525 94.7816 12.1916 95.9266 13.9648 95.9266C14.3619 95.9266 14.7682 95.8712 15.1746 95.7465C17.3587 95.0767 18.5869 92.7681 17.9218 90.5794C14.87 80.6012 14.7869 70.055 17.6728 60.0855Z" fill="#0331D1"/>
<path id="Vector_3" d="M37.6069 92.9299C38.0087 92.9299 38.415 92.87 38.8167 92.7452C41.0054 92.0803 42.2337 89.7669 41.5642 87.5781C39.8003 81.8062 39.8556 75.4801 41.7167 69.7635C42.4233 67.5886 41.2365 65.2567 39.0617 64.5458C36.8868 63.8394 34.5548 65.0261 33.8485 67.201C31.4658 74.5199 31.3964 82.6145 33.6546 89.9977C34.1992 91.7801 35.8335 92.9299 37.6069 92.9299Z" fill="#0331D1"/>
<path id="Vector_4" d="M149.661 15.8446C147.472 15.1798 145.163 16.408 144.494 18.5921C143.829 20.7762 145.057 23.0897 147.246 23.7591C159.358 27.4579 169.793 35.3445 176.627 45.9696C177.417 47.1979 178.751 47.8676 180.109 47.8676C180.875 47.8676 181.651 47.6552 182.344 47.2074C184.264 45.9745 184.823 43.4118 183.586 41.4908C175.69 29.2216 163.643 20.1111 149.661 15.8446Z" fill="#0331D1"/>
<path id="Vector_5" d="M139.474 50.5919C144.979 52.2726 149.836 55.4771 153.516 59.864C154.334 60.8384 155.507 61.3415 156.689 61.3415C157.626 61.3415 158.568 61.0274 159.344 60.3764C161.094 58.9079 161.325 56.299 159.856 54.5492C155.142 48.9297 148.931 44.8246 141.89 42.6774C139.701 42.0079 137.392 43.2408 136.727 45.4249C136.057 47.609 137.291 49.9222 139.474 50.5919Z" fill="#0331D1"/>
<path id="Vector_6" d="M176.655 193.062H26.2798C23.9943 193.062 22.1427 194.913 22.1427 197.199C22.1427 199.484 23.9943 201.336 26.2798 201.336H176.655C178.941 201.336 180.792 199.484 180.792 197.199C180.792 194.913 178.941 193.062 176.655 193.062Z" fill="#0331D1"/>
<path id="Vector_7" d="M205.57 193.062H199.812C197.526 193.062 195.674 194.913 195.674 197.199C195.674 199.484 197.526 201.336 199.812 201.336H205.57C207.856 201.336 209.707 199.484 209.707 197.199C209.707 194.913 207.856 193.062 205.57 193.062Z" fill="#0331D1"/>
<path id="Vector_8" d="M28.3625 139.715L29.3091 141.354C29.3829 141.483 29.4662 141.613 29.5538 141.733C34.4808 148.447 40.5666 151.845 47.6592 151.845C47.9687 151.845 48.2779 151.84 48.5871 151.827C67.2467 151.065 87.0884 126.541 96.8637 112.665C97.8426 112.892 98.8585 113.021 99.9066 113.021C101.296 113.021 102.64 112.809 103.901 112.421C113.611 126.25 133.583 151.06 152.353 151.827C152.663 151.841 152.972 151.845 153.276 151.845C160.369 151.845 166.46 148.447 171.382 141.733C171.469 141.613 171.553 141.483 171.631 141.354L172.573 139.72C172.647 139.59 172.716 139.456 172.776 139.318C176.276 131.367 176.018 124.122 172.005 117.787C161.8 101.671 129.501 96.8781 112.877 95.4651C112.273 93.5026 111.224 91.7341 109.862 90.2612C117.001 74.6307 127.709 46.0111 119.208 29.799C115.731 23.1585 109.585 19.3076 100.955 18.3609C100.802 18.3471 100.65 18.3379 100.502 18.3379H98.6138C98.4613 18.3379 98.3092 18.3471 98.1613 18.3609C89.5266 19.3076 83.3853 23.1585 79.9035 29.7987C71.3149 46.1866 82.3507 75.2632 89.4895 90.7736C88.3304 92.1635 87.444 93.7888 86.9129 95.5666C69.9942 97.0997 38.9087 102.031 28.9348 117.787C24.9222 124.122 24.6634 131.366 28.1636 139.318C28.2239 139.452 28.2887 139.586 28.3625 139.715ZM165.014 122.215C167.461 126.084 167.554 130.521 165.291 135.786L164.58 137.014C161.154 141.604 157.262 143.714 152.695 143.562C138.703 142.994 120.806 121.905 110.693 107.651C111.58 106.492 112.282 105.19 112.757 103.781C130.142 105.388 157.492 110.334 165.014 122.215ZM87.2316 33.6358C89.3604 29.5817 93.1606 27.2821 98.8446 26.6126H100.267C105.956 27.2821 109.756 29.5817 111.88 33.6358C118.141 45.5768 109.737 70.1654 102.599 86.1561C101.726 85.9806 100.826 85.8838 99.9066 85.8838C98.7567 85.8838 97.6487 86.0454 96.5821 86.3131C89.4249 70.3362 80.9473 45.6322 87.2316 33.6358ZM35.9214 122.215C43.2772 110.592 69.6757 105.605 87.0976 103.887C87.6794 105.559 88.5751 107.083 89.7203 108.385C79.5202 122.616 61.9964 143.003 48.2456 143.562C43.665 143.728 39.7816 141.604 36.36 137.014L35.6488 135.786C33.3863 130.526 33.4742 126.084 35.9214 122.215Z" fill="#0331D1"/>
</g>
</g>
</svg>
