<svg width="20" height="20" viewBox="0 0 20 20" fill="none" xmlns="http://www.w3.org/2000/svg">
<g id="heart">
<path id="Vector" d="M18.0273 5.53895C17.7655 4.93278 17.3881 4.38346 16.916 3.92177C16.4436 3.45869 15.8866 3.09069 15.2754 2.83778C14.6416 2.57449 13.9617 2.43972 13.2754 2.4413C12.3125 2.4413 11.373 2.70497 10.5566 3.20302C10.3613 3.32216 10.1758 3.45302 10 3.59559C9.82422 3.45302 9.63867 3.32216 9.44336 3.20302C8.62695 2.70497 7.6875 2.4413 6.72461 2.4413C6.03125 2.4413 5.35938 2.57411 4.72461 2.83778C4.11133 3.09169 3.55859 3.45692 3.08398 3.92177C2.61132 4.38294 2.23375 4.93239 1.97266 5.53895C1.70117 6.16981 1.5625 6.83974 1.5625 7.52919C1.5625 8.17958 1.69531 8.85731 1.95898 9.54677C2.17969 10.1229 2.49609 10.7206 2.90039 11.3241C3.54102 12.2792 4.42188 13.2753 5.51562 14.285C7.32812 15.9589 9.12305 17.1151 9.19922 17.162L9.66211 17.4589C9.86719 17.5897 10.1309 17.5897 10.3359 17.4589L10.7988 17.162C10.875 17.1132 12.668 15.9589 14.4824 14.285C15.5762 13.2753 16.457 12.2792 17.0977 11.3241C17.502 10.7206 17.8203 10.1229 18.0391 9.54677C18.3027 8.85731 18.4355 8.17958 18.4355 7.52919C18.4375 6.83974 18.2988 6.16981 18.0273 5.53895Z" fill="#F5222D"/>
</g>
</svg>
