<svg width="20" height="20" viewBox="0 0 20 20" fill="none" xmlns="http://www.w3.org/2000/svg">
<g id="Vertical container" clip-path="url(#clip0_340_1150)">
<path id="Vector" d="M18.864 3.2433L17.6051 4.22768C15.8886 2.03348 13.2189 0.625 10.2212 0.625C5.04483 0.625 0.855093 4.81027 0.848397 9.98884C0.8417 15.1719 5.04036 19.375 10.2212 19.375C14.268 19.375 17.7167 16.808 19.0292 13.2121C19.0627 13.1183 19.0136 13.0134 18.9198 12.9821L17.6542 12.5469C17.6101 12.5317 17.5618 12.5345 17.5196 12.5545C17.4775 12.5745 17.4449 12.6103 17.4288 12.654C17.3886 12.7656 17.3439 12.8772 17.2971 12.9866C16.9109 13.9018 16.3573 14.7232 15.652 15.4286C14.9523 16.1296 14.1239 16.6889 13.2122 17.0759C12.268 17.4754 11.2613 17.6786 10.2256 17.6786C9.18768 17.6786 8.18322 17.4754 7.23902 17.0759C6.32647 16.6905 5.49777 16.131 4.79929 15.4286C4.09773 14.729 3.53898 13.8996 3.1542 12.9866C2.75465 12.0402 2.55152 11.0357 2.55152 9.99777C2.55152 8.95982 2.75465 7.95536 3.1542 7.00893C3.54036 6.09375 4.09393 5.27232 4.79929 4.56696C5.50465 3.86161 6.32608 3.30804 7.23902 2.91964C8.18322 2.52009 9.18991 2.31696 10.2256 2.31696C11.2636 2.31696 12.268 2.52009 13.2122 2.91964C14.1248 3.30501 14.9535 3.86455 15.652 4.56696C15.873 4.78795 16.0805 5.02232 16.2725 5.26786L14.9288 6.31697C14.9022 6.33753 14.8819 6.36519 14.8704 6.39675C14.8588 6.42831 14.8564 6.46249 14.8634 6.49537C14.8704 6.52825 14.8865 6.55848 14.9099 6.5826C14.9333 6.60672 14.9631 6.62373 14.9957 6.6317L18.9154 7.59152C19.027 7.6183 19.1363 7.53348 19.1363 7.41964L19.1542 3.3817C19.152 3.23438 18.9801 3.15179 18.864 3.2433Z" fill="#8C8C8C"/>
</g>
<defs>
<clipPath id="clip0_340_1150">
<rect width="20" height="20" fill="white"/>
</clipPath>
</defs>
</svg>
