<svg width="148" height="51" viewBox="0 0 148 51" fill="none" xmlns="http://www.w3.org/2000/svg">
<g id="Group 2867">
<g id="Group">
<path id="Vector" d="M54.6334 23.8221L51.3998 35.4378C51.3998 35.4378 66.9396 33.3178 71.4618 33.7224C75.082 34.046 70.4994 37.659 70.4994 37.659L81.5533 37.3758L82.7694 34.9483C83.611 34.5963 95.4018 34.2119 96.3119 36.781C97.1293 39.0831 101.257 26.6259 101.257 26.6259C101.257 26.6259 67.1812 25.4485 63.4765 27.3218C63.4765 27.3218 69.4927 21.0062 54.6294 23.8181L54.6334 23.8221Z" fill="#0026D4"/>
<path id="Vector_2" d="M53.9325 36.9469L51.9916 48.773H98.442L98.6715 42.9348C98.6715 42.9348 86.0069 34.1188 65.5502 41.8262C65.5502 41.8262 74.5181 32.1242 53.9325 36.9509V36.9469Z" fill="#0026D4"/>
<path id="Vector_3" d="M98.9655 11.1221H99.0098C98.5628 3.8719 91.3506 0 76.0282 0C76.0202 0 76.0121 0 76.0081 0C76.0041 0 75.992 0 75.988 0C60.6696 0 53.4534 3.8719 53.0064 11.1181H53.0507C53.0346 11.3689 53.0064 11.6076 53.0064 11.8625C53.0064 12.1174 53.0346 12.3601 53.0507 12.6069H53.0064C53.0064 19.8531 60.6656 23.725 75.988 23.725C75.996 23.725 76.0041 23.725 76.0081 23.725C76.0121 23.725 76.0242 23.725 76.0282 23.725C91.3466 23.725 99.0098 19.8531 99.0098 12.6069H98.9655C98.9816 12.3601 99.0098 12.1174 99.0098 11.8625C99.0098 11.6076 98.9816 11.3689 98.9655 11.1221ZM66.6778 12.1093C67.0925 10.0257 69.9879 8.98184 74.8524 8.84833C75.2229 8.84024 75.6054 8.83619 76.0081 8.83215C76.4108 8.83215 76.7934 8.83619 77.1638 8.84833C82.0283 8.98184 84.9237 10.0257 85.3385 12.1093C85.0203 13.4606 82.729 14.6825 76.0081 14.6906C69.2872 14.6825 66.9959 13.4647 66.6778 12.1093Z" fill="#0026D4"/>
</g>
<g id="Group_2">
<path id="Vector_4" d="M26.9324 35.6438C26.9324 35.6438 45.8952 -13.3962 11.1067 7.3308C11.1067 7.3308 18.4357 -2.78793 1.71595 3.22424L0.000488281 46.2238C0.000488281 46.2238 1.48239 41.6803 25.2089 46.0862C25.2089 46.0862 37.3984 32.6499 26.9324 35.6438ZM15.9913 31.8124C12.2906 34.8428 10.5671 31.8974 10.5671 31.8974L12.5926 18.1333C18.1216 11.1016 20.0182 17.6478 20.0182 17.6478C17.3645 30.716 15.9913 31.8124 15.9913 31.8124Z" fill="#0026D4"/>
<g id="Group_3">
<path id="Vector_5" d="M46.2969 0.117188H34.345V48.3157H46.2969V0.117188Z" fill="#0026D4"/>
<path id="Vector_6" d="M49.4018 17.2393H43.0392V31.1935H49.4018V17.2393Z" fill="#0026D4"/>
</g>
</g>
<g id="Group_4">
<path id="Vector_7" d="M102.093 1.24205C102.093 1.24205 99.21 11.7006 105.25 10.4464C105.25 10.4464 99.7616 25.0035 103.148 27.8032C107.127 30.4533 132.227 28.4708 133.692 28.2361C134.542 28.0783 134.671 20.8605 133.08 20.6258C132.762 20.5773 115.712 21.7749 115.704 21.4552L115.753 18.9104L132.911 18.3763C132.911 18.3763 133 13.6548 133.016 11.1261L116.05 11.6035L116.083 8.90494L133.084 8.37897C133.104 8.34256 135.412 0.51379 132.726 0.578524C131.292 0.614937 102.097 1.23396 102.097 1.23396L102.093 1.24205Z" fill="#0026D4"/>
<path id="Vector_8" d="M147.227 0H135.275V29.7574H147.227V0Z" fill="#0026D4"/>
<path id="Vector_9" d="M115.446 35.4425C116.473 33.1849 116.409 29.665 105.298 32.8491L104.92 49.6274C115.804 47.4183 131.956 46.6051 145.994 50.4649L147.863 33.8606C146.047 33.6421 122.256 27.6502 115.446 35.4425ZM134.312 41.4709H117.685V39.63H134.312V41.4709Z" fill="#0026D4"/>
</g>
</g>
</svg>
