<svg width="247" height="255" viewBox="0 0 247 255" fill="none" xmlns="http://www.w3.org/2000/svg">
<g id="Group">
<path id="Vector" d="M97.8277 188.979C123.239 188.979 160.611 93.661 160.611 63.6963C160.611 29.0751 132.443 0.913086 97.8277 0.913086C63.2066 0.913086 35.0418 29.0751 35.0418 63.6963C35.0418 92.2062 73.9681 188.979 97.8277 188.979ZM47.5406 63.6963C47.5406 35.9694 70.0981 13.4122 97.8281 13.4122C125.555 13.4122 148.109 35.9697 148.109 63.6963C148.109 78.0942 140.058 105.044 127.594 132.361C114.377 161.321 102.615 176.481 97.8339 176.481C95.5026 176.319 84.3032 165.552 68.8544 132.289C56.1072 104.845 47.5406 77.2768 47.5406 63.6963Z" fill="#0331D1"/>
<path id="Vector_2" d="M136.223 64.7378C136.223 43.5665 118.996 26.3398 97.8281 26.3398C76.6538 26.3398 59.4302 43.5665 59.4302 64.7378C59.4302 85.9121 76.6534 103.136 97.8281 103.136C118.996 103.136 136.223 85.9121 136.223 64.7378ZM70.7725 64.7378C70.7725 49.8176 82.9076 37.6795 97.8281 37.6795C112.745 37.6795 124.883 49.8176 124.883 64.7378C124.883 79.6551 112.745 91.7933 97.8281 91.7933C82.9076 91.7933 70.7725 79.6551 70.7725 64.7378Z" fill="#0331D1"/>
<path id="Vector_3" d="M245.712 246.547L197.34 111.786C196.774 110.21 195.546 108.973 193.976 108.398L159.293 95.6816L158.839 97.2048C157.291 102.374 155.526 107.742 153.586 113.175L153.462 113.517L158.597 151.838L132.729 160.066L132.443 160.582C130.373 164.278 128.306 167.697 126.257 170.821L126.146 170.985C123.472 175.054 120.109 178.619 117.51 181.647L116.441 182.067V238.31L77.7538 226.053L83.2991 187.298L82.9262 186.773C80.6072 184.556 78.3041 181.858 75.9013 178.753L73.7566 175.924L67.1295 225.596L15.5769 240.069L38.5384 176.126L66.6568 164.88L65.7803 163.379C64.3939 161.01 63.0385 158.586 61.724 156.139L61.0929 154.964L43.6331 161.949L52.4641 137.352L52.2124 136.799C50.5463 133.112 48.9331 129.388 47.4223 125.721L45.9428 122.14L1.28794 246.547C0.569842 248.539 1.0205 250.743 2.46906 252.294C3.53194 253.435 5.03653 254.088 6.59681 254.088C7.10659 254.088 7.61637 254.016 8.11378 253.88L72.162 235.898L119.503 250.628C119.537 250.653 119.568 250.675 119.599 250.7C120.401 251.284 121.402 251.62 122.362 251.666C123.105 251.822 124.093 251.794 124.435 251.695C125.598 251.62 126.595 251.285 127.394 250.703C127.429 250.678 127.463 250.653 127.497 250.628L174.838 235.898L238.892 253.88C240.882 254.436 243.126 253.808 244.531 252.291C245.98 250.743 246.43 248.539 245.712 246.547ZM129.173 238.31V173.043L160.132 163.183L168.562 226.053L129.173 238.31ZM164.303 109.526L187.617 118.074L203.121 161.268L170.042 152.36L164.303 109.526ZM179.852 225.596L171.665 164.473L207.762 174.19L231.414 240.069L179.852 225.596Z" fill="#0331D1"/>
</g>
</svg>
