<svg width="44" height="57" viewBox="0 0 44 57" fill="none" xmlns="http://www.w3.org/2000/svg">
<g id="World [component:svg]">
<path id="Vector" d="M21.75 0C9.76358 0 0 9.76358 0 21.75C0 25.1091 1.39241 28.6848 3.30498 32.3871C5.21755 36.0898 7.71669 39.8888 10.2038 43.3301C15.178 50.2122 20.1357 55.7004 20.1357 55.7004C20.3397 55.9262 20.5887 56.1067 20.8668 56.2302C21.1448 56.3538 21.4457 56.4176 21.75 56.4176C22.0543 56.4176 22.3552 56.3538 22.6332 56.2302C22.9113 56.1067 23.1603 55.9262 23.3643 55.7004C23.3643 55.7004 28.322 50.2122 33.2962 43.3301C35.7833 39.8888 38.2825 36.0898 40.195 32.3871C42.1076 28.6848 43.5 25.1091 43.5 21.75C43.5 9.76358 33.7364 0 21.75 0ZM21.75 4.35C31.3855 4.35 39.15 12.1143 39.15 21.75C39.15 23.7967 38.0955 26.9875 36.3378 30.3905C34.58 33.7931 32.1854 37.4518 29.7788 40.7813C25.7722 46.3249 22.9833 49.375 21.75 50.7727C20.5167 49.375 17.7278 46.3249 13.7212 40.7813C11.3146 37.4518 8.91995 33.7931 7.16221 30.3905C5.40446 26.9875 4.35 23.7967 4.35 21.75C4.35 12.1143 12.1145 4.35 21.75 4.35ZM21.75 10.875C16.9709 10.875 13.05 14.7961 13.05 19.575C13.05 24.3543 16.9709 28.275 21.75 28.275C26.5291 28.275 30.45 24.3543 30.45 19.575C30.45 14.7961 26.5291 10.875 21.75 10.875ZM21.75 15.225C24.1782 15.225 26.1 17.1468 26.1 19.575C26.1 22.0032 24.1782 23.925 21.75 23.925C19.3218 23.925 17.4 22.0032 17.4 19.575C17.4 17.1468 19.3218 15.225 21.75 15.225Z" fill="white"/>
<path id="Vector_2" d="M21.7516 4.35156C12.116 4.35156 4.35156 12.1159 4.35156 21.7516C4.35156 23.7982 5.40603 26.9891 7.16377 30.3921C8.92151 33.7947 11.3161 37.4533 13.7228 40.7828C17.7293 46.3265 20.5182 49.3766 21.7516 50.7742C22.9849 49.3766 25.7738 46.3265 29.7804 40.7828C32.187 37.4533 34.5816 33.7947 36.3394 30.3921C38.0971 26.9891 39.1516 23.7982 39.1516 21.7516C39.1516 12.1159 31.3871 4.35156 21.7516 4.35156ZM21.7516 10.8766C26.5307 10.8766 30.4516 14.7977 30.4516 19.5766C30.4516 24.3559 26.5307 28.2766 21.7516 28.2766C16.9724 28.2766 13.0516 24.3559 13.0516 19.5766C13.0516 14.7977 16.9724 10.8766 21.7516 10.8766Z" fill="#97ABF2"/>
</g>
</svg>
