<svg xmlns="http://www.w3.org/2000/svg" width="21" height="4" viewBox="0 0 21 4" fill="none">
  <path d="M0.75 2C0.75 2.22161 0.793648 2.44104 0.878453 2.64578C0.963258 2.85052 1.08756 3.03654 1.24426 3.19324C1.40096 3.34994 1.58698 3.47424 1.79172 3.55905C1.99646 3.64385 2.21589 3.6875 2.4375 3.6875C2.65911 3.6875 2.87854 3.64385 3.08328 3.55905C3.28802 3.47424 3.47404 3.34994 3.63074 3.19324C3.78744 3.03654 3.91174 2.85052 3.99655 2.64578C4.08135 2.44104 4.125 2.22161 4.125 2C4.125 1.77839 4.08135 1.55896 3.99655 1.35422C3.91174 1.14948 3.78744 0.963456 3.63074 0.806757C3.47404 0.650058 3.28802 0.525758 3.08328 0.440954C2.87854 0.356149 2.65911 0.3125 2.4375 0.3125C2.21589 0.3125 1.99646 0.356149 1.79172 0.440954C1.58698 0.525758 1.40096 0.650058 1.24426 0.806757C1.08756 0.963456 0.963258 1.14948 0.878453 1.35422C0.793648 1.55896 0.75 1.77839 0.75 2ZM9.1875 2C9.1875 2.44755 9.36529 2.87677 9.68176 3.19324C9.99823 3.50971 10.4274 3.6875 10.875 3.6875C11.3226 3.6875 11.7518 3.50971 12.0682 3.19324C12.3847 2.87677 12.5625 2.44755 12.5625 2C12.5625 1.55245 12.3847 1.12322 12.0682 0.806757C11.7518 0.490289 11.3226 0.3125 10.875 0.3125C10.4274 0.3125 9.99823 0.490289 9.68176 0.806757C9.36529 1.12322 9.1875 1.55245 9.1875 2ZM17.625 2C17.625 2.44755 17.8028 2.87677 18.1193 3.19324C18.4357 3.50971 18.8649 3.6875 19.3125 3.6875C19.7601 3.6875 20.1893 3.50971 20.5057 3.19324C20.8222 2.87677 21 2.44755 21 2C21 1.55245 20.8222 1.12322 20.5057 0.806757C20.1893 0.490289 19.7601 0.3125 19.3125 0.3125C18.8649 0.3125 18.4357 0.490289 18.1193 0.806757C17.8028 1.12322 17.625 1.55245 17.625 2Z" fill="#A0ABC0"/>
</svg>