<svg width="16" height="16" viewBox="0 0 16 16" fill="none" xmlns="http://www.w3.org/2000/svg">
<g id="Team" clip-path="url(#clip0_571_883)">
<path id="Vector" d="M13.5753 11.358C13.1284 10.9107 12.6061 10.5456 12.0325 10.2794C12.8414 9.62408 13.3575 8.62408 13.3575 7.50265C13.3575 5.52408 11.7075 3.90087 9.7289 3.93122C7.78068 3.96158 6.21104 5.54908 6.21104 7.50265C6.21104 8.62408 6.7289 9.62408 7.53604 10.2794C6.9623 10.5454 6.44 10.9105 5.99318 11.358C5.01818 12.3348 4.46461 13.6241 4.4289 14.9991C4.42842 15.0181 4.43176 15.0371 4.43873 15.0548C4.44569 15.0726 4.45614 15.0888 4.46945 15.1024C4.48277 15.1161 4.49868 15.1269 4.51625 15.1343C4.53382 15.1417 4.55269 15.1455 4.57175 15.1455H5.57175C5.64854 15.1455 5.71282 15.0848 5.71461 15.008C5.74854 13.9723 6.16818 13.0027 6.90568 12.2669C7.28307 11.8875 7.73197 11.5868 8.22638 11.382C8.72079 11.1773 9.25091 11.0726 9.78604 11.0741C10.8735 11.0741 11.8968 11.4973 12.6664 12.2669C13.4021 13.0027 13.8218 13.9723 13.8575 15.008C13.8593 15.0848 13.9235 15.1455 14.0003 15.1455H15.0003C15.0194 15.1455 15.0383 15.1417 15.0558 15.1343C15.0734 15.1269 15.0893 15.1161 15.1026 15.1024C15.1159 15.0888 15.1264 15.0726 15.1333 15.0548C15.1403 15.0371 15.1437 15.0181 15.1432 14.9991C15.1075 13.6241 14.5539 12.3348 13.5753 11.358ZM9.78604 9.78837C9.17532 9.78837 8.60032 9.55087 8.16997 9.11872C7.95399 8.90445 7.78339 8.64887 7.66834 8.36722C7.55329 8.08558 7.49615 7.78365 7.50032 7.47944C7.50568 6.89372 7.73961 6.32765 8.14854 5.90801C8.57711 5.46872 9.15032 5.22408 9.76282 5.21694C10.3682 5.21158 10.9557 5.44729 11.3878 5.87051C11.8307 6.30444 12.0735 6.8848 12.0735 7.50265C12.0735 8.11337 11.836 8.68658 11.4039 9.11872C11.1919 9.33175 10.9397 9.50062 10.662 9.61557C10.3843 9.73051 10.0866 9.78924 9.78604 9.78837ZM5.31282 7.97408C5.29675 7.81872 5.28782 7.66158 5.28782 7.50265C5.28782 7.21872 5.31461 6.94194 5.36461 6.6723C5.37711 6.60801 5.34318 6.54194 5.28425 6.51515C5.0414 6.40622 4.81818 6.25622 4.62532 6.06694C4.39807 5.84659 4.21925 5.5813 4.10026 5.28798C3.98127 4.99466 3.92473 4.67976 3.93425 4.36337C3.95032 3.79015 4.18068 3.24551 4.58247 2.83479C5.02354 2.38301 5.61639 2.13658 6.24675 2.14372C6.8164 2.14908 7.36639 2.36872 7.78247 2.75801C7.92354 2.89015 8.04497 3.03658 8.14675 3.19372C8.18247 3.24908 8.25211 3.27229 8.31282 3.25087C8.62711 3.14194 8.95925 3.06515 9.30032 3.02944C9.40032 3.01872 9.45747 2.91158 9.41282 2.82229C8.83247 1.67408 7.64675 0.881223 6.27532 0.859794C4.29497 0.829437 2.64497 2.45265 2.64497 4.42944C2.64497 5.55087 3.16104 6.55087 3.96997 7.20622C3.40211 7.46872 2.8789 7.83122 2.42532 8.28479C1.44675 9.26158 0.893181 10.5509 0.857467 11.9277C0.85699 11.9467 0.860333 11.9657 0.867298 11.9834C0.874264 12.0012 0.884711 12.0173 0.898024 12.031C0.911338 12.0446 0.927248 12.0555 0.944817 12.0629C0.962386 12.0703 0.981259 12.0741 1.00032 12.0741H2.00211C2.0789 12.0741 2.14318 12.0134 2.14497 11.9366C2.1789 10.9009 2.59854 9.93122 3.33604 9.19551C3.86104 8.67051 4.5039 8.30622 5.20568 8.12944C5.27532 8.11158 5.32175 8.04551 5.31282 7.97408Z" fill="#A0ABC0"/>
</g>
<defs>
<clipPath id="clip0_571_883">
<rect width="16" height="16" fill="white"/>
</clipPath>
</defs>
</svg>
