
<svg xmlns="http://www.w3.org/2000/svg" width="20" height="20" viewBox="0 0 20 20" fill="none">
  <g clip-path="url(#clip0_448_663)">
    <path d="M8.9287 10C8.9287 10.2842 9.04158 10.5567 9.24251 10.7576C9.44344 10.9585 9.71597 11.0714 10.0001 11.0714C10.2843 11.0714 10.5568 10.9585 10.7577 10.7576C10.9587 10.5567 11.0716 10.2842 11.0716 10C11.0716 9.71584 10.9587 9.44332 10.7577 9.24239C10.5568 9.04145 10.2843 8.92857 10.0001 8.92857C9.71597 8.92857 9.44344 9.04145 9.24251 9.24239C9.04158 9.44332 8.9287 9.71584 8.9287 10ZM13.393 10C13.393 10.2842 13.5059 10.5567 13.7068 10.7576C13.9077 10.9585 14.1803 11.0714 14.4644 11.0714C14.7486 11.0714 15.0211 10.9585 15.222 10.7576C15.423 10.5567 15.5358 10.2842 15.5358 10C15.5358 9.71584 15.423 9.44332 15.222 9.24239C15.0211 9.04145 14.7486 8.92857 14.4644 8.92857C14.1803 8.92857 13.9077 9.04145 13.7068 9.24239C13.5059 9.44332 13.393 9.71584 13.393 10ZM4.46441 10C4.46441 10.2842 4.57729 10.5567 4.77823 10.7576C4.97916 10.9585 5.25168 11.0714 5.53584 11.0714C5.82 11.0714 6.09252 10.9585 6.29346 10.7576C6.49439 10.5567 6.60727 10.2842 6.60727 10C6.60727 9.71584 6.49439 9.44332 6.29346 9.24239C6.09252 9.04145 5.82 8.92857 5.53584 8.92857C5.25168 8.92857 4.97916 9.04145 4.77823 9.24239C4.57729 9.44332 4.46441 9.71584 4.46441 10ZM19.2233 6.125C18.7189 4.92634 17.9957 3.85045 17.0738 2.92634C16.1584 2.00758 15.0716 1.27728 13.8751 0.776786C12.6474 0.261161 11.3439 0 10.0001 0H9.95548C8.60281 0.00669643 7.29254 0.274554 6.06039 0.801339C4.87414 1.30697 3.79759 2.03857 2.89075 2.95536C1.97781 3.87723 1.26129 4.94866 0.765752 6.14286C0.252359 7.37946 -0.00656979 8.6942 0.000126635 10.0469C0.00770086 11.597 0.374439 13.1243 1.07156 14.5089V17.9018C1.07156 18.1741 1.17973 18.4353 1.37229 18.6278C1.56485 18.8204 1.82602 18.9286 2.09834 18.9286H5.49343C6.87802 19.6257 8.40533 19.9924 9.95548 20H10.0024C11.3394 20 12.6363 19.7411 13.8573 19.2344C15.0477 18.7398 16.1304 18.0181 17.0448 17.1094C17.9666 16.1964 18.6921 15.1295 19.1988 13.9397C19.7256 12.7076 19.9934 11.3973 20.0001 10.0446C20.0068 8.68527 19.7434 7.36607 19.2233 6.125ZM15.8506 15.9018C14.2858 17.4509 12.2099 18.3036 10.0001 18.3036H9.96218C8.6162 18.2969 7.27915 17.9621 6.09834 17.3326L5.91084 17.2321H2.76798V14.0893L2.66754 13.9018C2.03807 12.721 1.70325 11.3839 1.69656 10.0379C1.68763 7.8125 2.53807 5.72321 4.09834 4.14955C5.65638 2.57589 7.73897 1.70536 9.96441 1.69643H10.0024C11.1184 1.69643 12.201 1.91295 13.2211 2.34152C14.2166 2.75893 15.1095 3.35938 15.8774 4.12723C16.643 4.89286 17.2457 5.78795 17.6631 6.78348C18.0961 7.81473 18.3126 8.90848 18.3082 10.0379C18.2948 12.2612 17.422 14.3438 15.8506 15.9018Z" fill="#A0ABC0"/>
  </g>
  <defs>
    <clipPath id="clip0_448_663">
      <rect width="20" height="20" fill="white"/>
    </clipPath>
  </defs>
</svg>