<svg width="249" height="249" viewBox="0 0 249 249" fill="none" xmlns="http://www.w3.org/2000/svg">
<g id="1076699_air_forest_fresh_mountains_nature_icon 1">
<g id="Group">
<path id="Vector" d="M18.8854 201.453L33.1226 187.216L47.6857 202.022C47.996 202.336 48.348 202.578 48.7143 202.785L52.0827 193.218L36.4679 177.345C35.598 176.459 34.4096 175.96 33.1696 175.955C31.9918 176.059 30.7375 176.441 29.8598 177.319L12.3049 194.872C10.4869 196.69 10.4869 199.635 12.3049 201.453C14.1223 203.271 17.0674 203.271 18.8854 201.453Z" fill="#0331D1"/>
<path id="Vector_2" d="M195.689 109.644C195.026 107.798 193.274 106.567 191.311 106.567C189.347 106.567 187.596 107.798 186.932 109.644L171.058 153.771L145.295 82.17C144.631 80.3208 142.879 79.0898 140.916 79.0898C138.953 79.0898 137.201 80.3208 136.538 82.17L110.479 154.602L94.3212 109.696C93.6576 107.847 91.9059 106.616 89.9425 106.616C87.9792 106.616 86.2274 107.847 85.5642 109.696L54.5799 195.815C54.5733 195.807 54.568 195.799 54.5615 195.795L47.1534 216.618C47.1534 216.618 39.6103 216.711 37.5065 216.732V209.356L44.0565 216.015L47.4977 206.243L36.4679 195.029C35.598 194.143 34.4096 193.644 33.1696 193.639C31.9918 193.668 30.7375 194.125 29.8598 195.003L12.3049 212.556C10.4869 214.374 10.4869 217.322 12.3049 219.137C14.123 220.955 17.068 220.955 18.886 219.137L28.1989 209.824V221.238C28.1964 221.316 28.1781 221.388 28.1781 221.469C28.2042 224.022 30.2831 226.076 32.8306 226.076C32.8478 226.076 32.863 226.076 32.8786 226.076C38.3052 226.019 43.7384 225.996 49.1688 225.949C62.6347 225.838 76.0913 225.757 89.5516 225.708C103.56 225.659 117.538 225.64 131.493 225.659C137.67 225.666 143.843 225.677 150.005 225.698C163.952 225.744 177.836 225.827 191.66 225.944C191.453 225.999 191.237 226.017 191.021 226.043H230.947C232.464 226.043 233.884 225.305 234.754 224.064C235.627 222.825 235.84 221.238 235.326 219.812L195.689 109.644ZM191.311 124.967L198.09 143.811L191.265 151.652L184.427 144.099L191.311 124.967ZM140.916 97.4925L150.624 124.474L140.538 135.607L130.889 125.362L140.916 97.4925ZM89.9422 125.016L96.7832 144.029L90.1464 151.652L83.142 143.915L89.9422 125.016ZM88.0321 216.786H56.9245L56.9986 216.581L79.572 153.839L86.7631 161.783C87.6461 162.759 88.8992 163.315 90.2133 163.315C90.2276 163.315 90.2432 163.315 90.2588 163.315C91.5884 163.302 92.8493 162.721 93.7233 161.715L100.391 154.057L105.532 168.348L88.0321 216.786ZM148.38 216.802H132.856H97.9918L97.997 216.786H97.923L110.478 182.094L115.423 168.348L127.354 135.186L137.218 145.655C138.098 146.59 139.324 147.12 140.606 147.12C140.621 147.12 140.635 147.12 140.651 147.12C141.95 147.107 143.183 146.551 144.055 145.59L154.195 134.394L166.111 167.517L171.057 181.263L183.748 216.802H148.38ZM202.222 216.734H193.71H193.615L176.003 167.517L180.858 154.023L187.883 161.783C188.766 162.76 190.018 163.316 191.333 163.316C191.347 163.316 191.363 163.316 191.378 163.316C192.708 163.302 193.968 162.721 194.843 161.716L201.699 153.841L224.329 216.734H202.222Z" fill="#0331D1"/>
<path id="Vector_3" d="M18.8854 183.77L33.1226 169.533L47.6857 184.338C48.5973 185.266 49.7997 185.728 51.0036 185.728C52.1814 185.728 53.3604 185.284 54.2667 184.393C56.0991 182.59 56.1237 179.643 54.3215 177.812L36.4679 159.661C35.598 158.775 34.4096 158.277 33.1696 158.272C31.9918 158.202 30.7375 158.755 29.8598 159.633L12.3049 177.188C10.4869 179.007 10.4869 181.955 12.3049 183.77C14.1223 185.587 17.0674 185.587 18.8854 183.77Z" fill="#0331D1"/>
<path id="Vector_4" d="M32.0874 86.4682C41.3564 86.4682 48.898 78.9263 48.898 69.6573C48.898 60.3886 41.3564 52.8467 32.0874 52.8467C22.8184 52.8467 15.2768 60.3886 15.2768 69.6573C15.2768 78.9263 22.8187 86.4682 32.0874 86.4682ZM32.0874 62.1546C36.2245 62.1546 39.5904 65.5202 39.5904 69.6573C39.5904 73.7944 36.2245 77.1603 32.0874 77.1603C27.9502 77.1603 24.5844 73.7944 24.5844 69.6573C24.5844 65.5202 27.9506 62.1546 32.0874 62.1546Z" fill="#0331D1"/>
<path id="Vector_5" d="M184.098 31.8621C184.126 31.8621 184.152 31.8621 184.181 31.8621C184.329 31.8674 197.584 31.7012 204.9 39.0143C205.773 39.8868 206.914 40.3231 208.062 40.3231C208.321 40.3231 208.581 40.292 208.841 40.2506C209.095 40.292 209.355 40.3231 209.62 40.3231C210.763 40.3231 211.906 39.8868 212.778 39.0143C220.055 31.7373 233.222 31.8568 233.492 31.8621C235.97 31.9268 238.001 29.9663 238.058 27.499C238.115 25.0345 236.162 22.9877 233.695 22.9308C233.056 22.9022 218.912 22.6995 208.841 30.6156C198.763 22.7048 184.616 22.9255 183.985 22.9308C181.521 22.9881 179.573 25.0264 179.625 27.4887C179.677 29.9246 181.672 31.8621 184.098 31.8621Z" fill="#0331D1"/>
<path id="Vector_6" d="M153.997 53.2802C154.099 53.2802 164.064 53.1918 169.572 60.0689C170.452 61.1701 171.751 61.744 173.063 61.744C173.27 61.744 173.475 61.6712 173.681 61.6401C173.891 61.6712 174.094 61.744 174.304 61.744C175.613 61.744 176.911 61.1701 177.794 60.0689C183.29 53.2049 193.148 53.2647 193.385 53.2827C195.829 53.3503 197.893 51.4077 197.963 48.9454C198.036 46.4782 196.096 44.4214 193.626 44.3511C193.099 44.3305 182.001 44.1304 173.681 51.5061C165.362 44.1332 154.27 44.3408 153.735 44.3511C151.271 44.4214 149.331 46.4782 149.401 48.9454C149.473 51.4102 151.548 53.4411 153.997 53.2802Z" fill="#0331D1"/>
</g>
</g>
</svg>
