<svg width="217" height="217" viewBox="0 0 217 217" fill="none" xmlns="http://www.w3.org/2000/svg">
<g id="1076708_clouds_colours_rain_rainbow_spring_icon 1">
<g id="Group">
<path id="Vector" d="M74.4795 104.471C68.9072 96.4304 59.6983 91.5352 49.8435 91.5352C48.471 91.5352 47.0841 91.6304 45.7156 91.8202C30.763 93.8798 19.9691 106.416 19.8186 121.139C11.4858 123.348 5.89912 131.5 7.10619 140.25C8.28151 148.782 15.6538 155.218 24.2538 155.218C25.0464 155.218 25.849 155.164 26.6354 155.056C30.9407 154.462 34.835 152.258 37.5738 148.956C42.6673 151.238 48.3511 152.068 53.9153 151.296C58.8664 150.611 63.5202 148.725 67.516 145.794C71.3423 147.623 75.5898 148.312 79.7548 147.734C91.6548 146.095 100.007 135.074 98.3707 123.166C96.7874 111.678 86.2103 103.229 74.4795 104.471ZM78.7455 140.407C75.433 140.865 72.044 140.098 69.1175 138.24C67.7306 137.361 65.9308 137.501 64.6966 138.583C61.3698 141.501 57.2915 143.363 52.9038 143.969C47.8308 144.667 42.6464 143.61 38.2443 140.981C37.3671 140.456 36.3187 140.32 35.3384 140.597C34.3581 140.878 33.5365 141.546 33.0662 142.45C31.5759 145.319 28.7962 147.292 25.6282 147.726C20.1446 148.473 15.1686 144.584 14.4329 139.243C13.6859 133.815 17.4915 128.796 22.8978 128.049C22.9515 128.045 23.0052 128.045 23.0568 128.045C23.1064 128.045 23.1558 128.045 23.2054 128.045C23.4634 128.082 23.6348 128.04 23.8515 128.032C24.869 127.982 25.8184 127.516 26.4789 126.74C27.1413 125.968 27.4551 124.957 27.3477 123.945C26.0413 111.719 34.5545 100.827 46.7271 99.1464C55.8617 97.8873 64.9652 102.432 69.4934 110.423C70.3023 111.855 71.9577 112.578 73.5529 112.202C73.7944 112.149 74.0317 112.083 74.2691 112.016C74.4527 111.967 74.6322 111.905 74.8099 111.88C75.4704 111.789 76.139 111.744 76.7993 111.744C83.9443 111.744 90.0658 117.089 91.044 124.177C92.1252 132.04 86.6066 139.322 78.7455 140.407Z" fill="#0331D1"/>
<path id="Vector_2" d="M206.175 129.015C203.973 126.55 201.1 124.903 197.926 124.243C196.581 111.719 186.453 101.846 173.523 101.115C163.759 100.546 154.614 105.565 149.703 113.783C139.561 113.647 131.095 121.63 130.525 131.772C129.933 142.264 137.99 151.283 148.482 151.873C152.101 152.084 155.588 151.246 158.728 149.487C162.321 151.638 166.376 152.885 170.593 153.12C175.393 153.388 180.033 152.36 184.189 150.156C186.798 152.682 190.249 154.231 193.926 154.436C194.219 154.453 194.508 154.461 194.797 154.461C202.888 154.461 209.579 148.129 210.033 140.051C210.264 135.978 208.893 132.057 206.175 129.015ZM194.343 147.053C191.815 146.908 189.493 145.53 188.131 143.358C187.59 142.495 186.715 141.893 185.716 141.695C185.477 141.645 185.238 141.624 184.999 141.624C184.235 141.624 183.483 141.86 182.852 142.31C179.385 144.774 175.303 145.971 171.008 145.736C167.365 145.529 163.889 144.27 160.961 142.095C159.644 141.117 157.842 141.121 156.53 142.107C154.268 143.812 151.622 144.629 148.9 144.489C142.479 144.13 137.547 138.611 137.91 132.188C138.269 125.795 143.643 120.862 150.214 121.196C150.346 121.209 150.47 121.242 150.594 121.267C150.813 121.308 151.033 121.349 151.258 121.382C152.881 121.622 154.462 120.767 155.151 119.281C158.35 112.392 165.454 108.075 173.106 108.5C183.217 109.07 190.934 117.457 190.674 127.591C190.647 128.61 191.045 129.597 191.772 130.315C192.496 131.033 193.473 131.425 194.509 131.38C194.69 131.376 194.868 131.359 195.047 131.347L195.231 131.33C197.33 131.446 199.26 132.375 200.659 133.943C202.06 135.511 202.766 137.534 202.648 139.635C202.404 143.953 198.706 147.284 194.343 147.053Z" fill="#0331D1"/>
<path id="Vector_3" d="M31.1324 175.657C29.273 174.811 27.081 175.628 26.2328 177.486L23.2548 184.015C22.4085 185.873 23.226 188.065 25.0855 188.915C25.5827 189.142 26.1029 189.249 26.6188 189.249C28.0223 189.249 29.3636 188.444 29.9848 187.082L32.9628 180.556C33.8094 178.695 32.9918 176.503 31.1324 175.657Z" fill="#0331D1"/>
<path id="Vector_4" d="M57.2627 156.406C55.4033 155.56 53.2095 156.377 52.3632 158.239L49.3829 164.765C48.5369 166.626 49.3561 168.818 51.2158 169.664C51.7111 169.892 52.2332 169.998 52.7472 169.998C54.1507 169.998 55.492 169.198 56.1154 167.836L59.0915 161.306C59.9397 159.448 59.1203 157.257 57.2627 156.406Z" fill="#0331D1"/>
<path id="Vector_5" d="M67.9907 171.745C66.1332 170.894 63.9374 171.716 63.0911 173.573L59.8301 180.722C58.9838 182.58 59.8033 184.772 61.6627 185.622C62.158 185.849 62.6802 185.956 63.1942 185.956C64.5976 185.956 65.9411 185.151 66.5623 183.789L69.8211 176.644C70.6696 174.783 69.8479 172.591 67.9907 171.745Z" fill="#0331D1"/>
<path id="Vector_6" d="M20.9061 100.339C31.6999 62.7404 66.3933 35.1467 107.418 35.1467C150.148 35.1467 186.009 65.0805 195.152 105.078C199.561 109.668 202.59 115.567 203.606 122.146C203.994 122.258 204.369 122.398 204.745 122.534C203.352 70.0341 160.244 27.75 107.418 27.75C55.5951 27.75 13.1109 68.4367 10.1987 119.546C11.4598 118.572 12.8168 117.713 14.2748 117.015C15.0335 110.861 17.3749 105.157 20.9061 100.339Z" fill="#0331D1"/>
<path id="Vector_7" d="M174.427 92.9092C174.828 93.7349 175.211 94.5728 175.579 95.4106C175.744 95.7823 177.502 95.8113 177.944 95.8897C180.177 96.286 182.369 96.9131 184.466 97.7803C177.265 77.4471 161.584 59.958 141.893 51.0054C120.503 41.2805 95.7537 40.8181 74.2235 50.4355C56.714 58.2535 42.2854 72.2133 33.8753 89.4464C36.4302 88.1873 39.1381 87.2463 41.916 86.627C43.6105 86.2513 43.988 86.3216 44.9293 84.8726C45.8331 83.4735 46.7868 82.1072 47.7774 80.7697C51.2942 76.0228 55.4136 71.7712 59.921 67.9656C69.1237 60.1891 80.1468 55.1287 91.8281 52.4208C115.244 46.9887 140.725 54.5628 158.16 70.8302C162.077 74.4994 165.611 78.5779 168.661 82.9985C170.836 86.1442 172.762 89.467 174.427 92.9092Z" fill="#0331D1"/>
<path id="Vector_8" d="M146.501 108.537C148.076 106.362 149.905 104.414 151.938 102.721C143.713 86.4584 126.851 75.2764 107.419 75.2764C92.5836 75.2764 79.247 81.794 70.1043 92.105C72.1435 93.5122 74.0339 95.1264 75.7552 96.9384C83.5401 88.2082 94.8314 82.6731 107.419 82.6731C124.947 82.6731 140.023 93.3514 146.501 108.537Z" fill="#0331D1"/>
<path id="Vector_9" d="M165.169 92.918C164.896 92.4309 165.412 93.3512 165.169 92.918V92.918Z" fill="#0331D1"/>
<path id="Vector_10" d="M111.86 59.1489C89.727 57.692 67.7615 67.6727 54.4892 85.5125C54.3696 85.6734 54.2497 85.8385 54.1301 85.9994C56.8171 86.3254 59.459 86.9737 62.0017 87.8981C63.7971 85.6983 65.7786 83.6509 67.8673 81.7316C72.003 77.9422 76.684 74.8383 81.6907 72.3287C91.2544 67.5365 102.086 65.7821 112.696 66.6199C123.459 67.4703 134.098 71.6557 142.677 78.1774C147.127 81.5539 151.093 85.5041 154.451 89.9705C156.133 92.2075 157.636 94.5687 158.99 97.0206C159.456 97.8585 159.223 98.1267 160.207 97.7223C160.902 97.4372 161.607 97.1773 162.321 96.9462C163.757 96.4759 165.226 96.1083 166.714 95.8482C166.221 94.8576 165.709 93.8792 165.169 92.9176C154.352 73.5338 133.984 60.643 111.86 59.1489Z" fill="#0331D1"/>
</g>
</g>
</svg>
