<svg width="24" height="25" viewBox="0 0 24 25" fill="none" xmlns="http://www.w3.org/2000/svg">
<g id="User">
<path id="Vector" d="M21.2805 19.1402C20.7752 17.9434 20.0419 16.8562 19.1216 15.9393C18.204 15.0198 17.117 14.2867 15.9207 13.7804C15.9099 13.7751 15.8992 13.7724 15.8885 13.767C17.5573 12.5617 18.6421 10.5983 18.6421 8.38309C18.6421 4.71345 15.6689 1.74023 11.9992 1.74023C8.32959 1.74023 5.35637 4.71345 5.35637 8.38309C5.35637 10.5983 6.44119 12.5617 8.10994 13.7697C8.09923 13.7751 8.08852 13.7777 8.0778 13.7831C6.8778 14.2893 5.80102 15.0152 4.87691 15.942C3.95738 16.8596 3.22424 17.9466 2.71798 19.1429C2.22063 20.3141 1.9524 21.5698 1.9278 22.842C1.92709 22.8706 1.9321 22.8991 1.94255 22.9257C1.953 22.9523 1.96867 22.9766 1.98864 22.997C2.00861 23.0175 2.03247 23.0338 2.05883 23.0449C2.08518 23.056 2.11349 23.0617 2.14209 23.0617H3.74923C3.86709 23.0617 3.96084 22.9679 3.96352 22.8527C4.01709 20.7849 4.84744 18.8483 6.3153 17.3804C7.83405 15.8617 9.85102 15.026 11.9992 15.026C14.1474 15.026 16.1644 15.8617 17.6832 17.3804C19.151 18.8483 19.9814 20.7849 20.0349 22.8527C20.0376 22.9706 20.1314 23.0617 20.2492 23.0617H21.8564C21.885 23.0617 21.9133 23.056 21.9396 23.0449C21.966 23.0338 21.9899 23.0175 22.0098 22.997C22.0298 22.9766 22.0455 22.9523 22.0559 22.9257C22.0664 22.8991 22.0714 22.8706 22.0707 22.842C22.0439 21.5617 21.7787 20.3161 21.2805 19.1402ZM11.9992 12.9902C10.7698 12.9902 9.61262 12.5108 8.74209 11.6402C7.87155 10.7697 7.39209 9.61256 7.39209 8.38309C7.39209 7.15363 7.87155 5.99648 8.74209 5.12595C9.61262 4.25541 10.7698 3.77595 11.9992 3.77595C13.2287 3.77595 14.3858 4.25541 15.2564 5.12595C16.1269 5.99648 16.6064 7.15363 16.6064 8.38309C16.6064 9.61256 16.1269 10.7697 15.2564 11.6402C14.3858 12.5108 13.2287 12.9902 11.9992 12.9902Z" fill="black" fill-opacity="0.85"/>
</g>
</svg>
