<svg xmlns="http://www.w3.org/2000/svg" width="24" height="24" viewBox="0 0 24 24" fill="none">
  <path d="M21.2805 18.7359C20.7752 17.5391 20.0419 16.4519 19.1216 15.535C18.204 14.6155 17.117 13.8824 15.9207 13.3761C15.9099 13.3708 15.8992 13.3681 15.8885 13.3627C17.5573 12.1574 18.6421 10.194 18.6421 7.9788C18.6421 4.30915 15.6689 1.33594 11.9992 1.33594C8.32959 1.33594 5.35637 4.30915 5.35637 7.9788C5.35637 10.194 6.44119 12.1574 8.10994 13.3654C8.09923 13.3708 8.08852 13.3734 8.0778 13.3788C6.8778 13.885 5.80102 14.6109 4.87691 15.5377C3.95738 16.4553 3.22424 17.5423 2.71798 18.7386C2.22063 19.9098 1.9524 21.1655 1.9278 22.4377C1.92709 22.4663 1.9321 22.4948 1.94255 22.5214C1.953 22.548 1.96867 22.5723 1.98864 22.5927C2.00861 22.6132 2.03247 22.6295 2.05883 22.6406C2.08518 22.6517 2.11349 22.6574 2.14209 22.6574H3.74923C3.86709 22.6574 3.96084 22.5636 3.96352 22.4484C4.01709 20.3806 4.84744 18.444 6.3153 16.9761C7.83405 15.4574 9.85102 14.6217 11.9992 14.6217C14.1474 14.6217 16.1644 15.4574 17.6832 16.9761C19.151 18.444 19.9814 20.3806 20.0349 22.4484C20.0376 22.5663 20.1314 22.6574 20.2492 22.6574H21.8564C21.885 22.6574 21.9133 22.6517 21.9396 22.6406C21.966 22.6295 21.9899 22.6132 22.0098 22.5927C22.0298 22.5723 22.0455 22.548 22.0559 22.5214C22.0664 22.4948 22.0714 22.4663 22.0707 22.4377C22.0439 21.1574 21.7787 19.9118 21.2805 18.7359ZM11.9992 12.5859C10.7698 12.5859 9.61262 12.1065 8.74209 11.2359C7.87155 10.3654 7.39209 9.20826 7.39209 7.9788C7.39209 6.74933 7.87155 5.59219 8.74209 4.72165C9.61262 3.85112 10.7698 3.37165 11.9992 3.37165C13.2287 3.37165 14.3858 3.85112 15.2564 4.72165C16.1269 5.59219 16.6064 6.74933 16.6064 7.9788C16.6064 9.20826 16.1269 10.3654 15.2564 11.2359C14.3858 12.1065 13.2287 12.5859 11.9992 12.5859Z" fill="black" fill-opacity="0.85"/>
</svg>